<?xml version="1.0" encoding="iso-8859-1"?>
<!-- Generator: Adobe Illustrator 19.0.0, SVG Export Plug-In . SVG Version: 6.00 Build 0)  -->
<svg version="1.1" id="Layer_1" xmlns="http://www.w3.org/2000/svg" xmlns:xlink="http://www.w3.org/1999/xlink" x="0px" y="0px"
	 viewBox="0 0 511.999 511.999" style="enable-background:new 0 0 511.999 511.999;" xml:space="preserve">
<path style="fill:#E1B658;" d="M185.99,392.546c9.004,0,16.331-7.328,16.331-16.333c0-9.004-7.326-16.331-16.331-16.331
	c-9.007,0-16.335,7.327-16.335,16.331C169.654,385.218,176.982,392.546,185.99,392.546z"/>
<g>
	<path style="fill:#FFFFFF;" d="M103.281,392.546c9.006,0,16.333-7.328,16.333-16.333c0-9.004-7.327-16.331-16.333-16.331
		s-16.335,7.327-16.335,16.331C86.946,385.218,94.274,392.546,103.281,392.546z"/>
	<path style="fill:#FFFFFF;" d="M268.695,392.546c9.007,0,16.333-7.328,16.333-16.333c0-9.004-7.327-16.331-16.333-16.331
		c-9.005,0-16.333,7.327-16.333,16.331C252.361,385.218,259.689,392.546,268.695,392.546z"/>
</g>
<path style="fill:#FF5240;" d="M185.986,491.453c45.455,0,84.981-25.836,104.685-63.59H81.304
	C101.007,465.617,140.534,491.453,185.986,491.453z"/>
<path style="fill:#E1B658;" d="M143.333,245.558c4.795,1.279,7.854,4.075,10.25,6.268c2.766,2.532,4.434,4.059,8.305,4.059
	c3.874,0,5.545-1.529,8.311-4.06c3.211-2.939,7.611-6.964,15.783-6.964c8.175,0,12.576,4.026,15.787,6.965
	c2.768,2.532,4.438,4.06,8.313,4.06s5.545-1.529,8.313-4.06c2.395-2.192,5.455-4.987,10.247-6.267v-22.502h-85.309
	C143.333,223.057,143.333,245.558,143.333,245.558z"/>
<path style="fill:#FF5240;" d="M210.082,266.962c-8.176,0-12.577-4.026-15.789-6.965c-2.767-2.532-4.437-4.06-8.31-4.06
	c-3.871,0-5.54,1.527-8.305,4.059c-3.212,2.939-7.612,6.966-15.789,6.966c-6.671,0-10.827-2.682-13.876-5.265
	c-31.674,10.731-56.379,33.783-69.528,62.865h215.012c-13.148-29.085-37.853-52.135-69.531-62.866
	C220.914,264.279,216.757,266.962,210.082,266.962z"/>
<path style="fill:#EFD18D;" d="M67.987,373.454c0,15.291,2.926,29.911,8.242,43.333h219.515c5.317-13.421,8.242-28.042,8.242-43.333
	c0-13.162-2.142-25.89-6.134-37.815H74.125C70.13,347.565,67.987,360.293,67.987,373.454z M268.695,348.803
	c15.114,0,27.41,12.295,27.41,27.408c0,15.115-12.297,27.41-27.41,27.41s-27.41-12.297-27.41-27.41
	C241.285,361.098,253.581,348.803,268.695,348.803z M185.99,348.803c15.113,0,27.408,12.295,27.408,27.408
	c0,15.115-12.294,27.41-27.408,27.41c-15.115,0-27.412-12.297-27.412-27.41C158.577,361.098,170.875,348.803,185.99,348.803z
	 M103.281,348.803c15.114,0,27.41,12.295,27.41,27.408c0,15.115-12.295,27.41-27.41,27.41s-27.412-12.297-27.412-27.41
	C75.869,361.098,88.165,348.803,103.281,348.803z"/>
<g>
	<path style="fill:#4F413B;" d="M185.99,403.622c15.113,0,27.408-12.297,27.408-27.41c0-15.113-12.294-27.408-27.408-27.408
		c-15.115,0-27.412,12.295-27.412,27.408C158.577,391.326,170.875,403.622,185.99,403.622z M185.99,359.88
		c9.004,0,16.331,7.327,16.331,16.331c0,9.007-7.326,16.333-16.331,16.333c-9.007,0-16.335-7.328-16.335-16.333
		C169.654,367.207,176.982,359.88,185.99,359.88z"/>
	<path style="fill:#4F413B;" d="M103.281,403.622c15.114,0,27.41-12.297,27.41-27.41c0-15.113-12.295-27.408-27.41-27.408
		S75.87,361.1,75.87,376.212C75.869,391.326,88.165,403.622,103.281,403.622z M103.281,359.88c9.006,0,16.333,7.327,16.333,16.331
		c0,9.007-7.327,16.333-16.333,16.333s-16.335-7.328-16.335-16.333C86.946,367.207,94.274,359.88,103.281,359.88z"/>
	<path style="fill:#4F413B;" d="M268.695,403.622c15.114,0,27.41-12.297,27.41-27.41c0-15.113-12.297-27.408-27.41-27.408
		s-27.41,12.295-27.41,27.408C241.285,391.326,253.581,403.622,268.695,403.622z M268.695,359.88
		c9.007,0,16.333,7.327,16.333,16.331c0,9.007-7.327,16.333-16.333,16.333c-9.005,0-16.333-7.328-16.333-16.333
		C252.361,367.207,259.689,359.88,268.695,359.88z"/>
	<path style="fill:#4F413B;" d="M502.739,10.906c-4.951,4.494-9.957,8.831-15.002,13.034c-10.785-1.323-53.81-6.535-62.027-6.535
		c-3.058,0-5.538,2.48-5.538,5.538s2.48,5.538,5.538,5.538c5.525,0,31.601,2.965,49.983,5.158
		c-10.822,8.426-21.818,16.225-32.922,23.444l-64.782-23.629c-2.87-1.046-6.053,0.431-7.102,3.305
		c-1.049,2.874,0.431,6.053,3.305,7.102l56.726,20.69c-11.659,7.108-23.413,13.597-35.196,19.529l-58.35-27.965
		c-2.759-1.323-6.066-0.158-7.388,2.601c-1.322,2.758-0.158,6.066,2.599,7.388L383,90.264c-10.471,4.912-20.944,9.391-31.368,13.479
		l-62.32-30.971c-2.741-1.361-6.064-0.244-7.425,2.495c-1.36,2.74-0.244,6.064,2.495,7.425l53.085,26.381
		c-9.094,3.276-18.133,6.261-27.087,8.981l-63.176-29.131c-2.779-1.28-6.069-0.066-7.35,2.71c-1.28,2.778-0.068,6.068,2.71,7.349
		l51.532,23.762c-16.445,4.475-32.519,8.077-48.015,10.965l-48.16-33.956c-2.5-1.762-5.957-1.167-7.718,1.335
		c-1.764,2.5-1.164,5.956,1.335,7.718l39.119,27.583c-10.128,1.628-19.962,2.956-29.435,4.032
		c-4.106-3.515-9.423-5.653-15.239-5.653c-7.295,0-13.82,3.346-18.13,8.582c-5.452,0.341-10.812,0.61-16.075,0.817l-39.584-48.401
		c-1.936-2.368-5.424-2.718-7.794-0.78c-2.367,1.936-2.716,5.425-0.78,7.793l34.184,41.791c-7.253,0.139-14.287,0.162-21.069,0.091
		l-63.9-50.384c-2.402-1.894-5.884-1.483-7.777,0.919c-1.894,2.402-1.483,5.884,0.919,7.778l52.314,41.248
		c-50.763-1.866-83.654-8.566-84.136-8.667c-2.992-0.624-5.927,1.296-6.551,4.29c-0.625,2.994,1.295,5.927,4.288,6.553
		c0.338,0.071,16.349,3.343,43.167,6.002L3.58,171.888c-2.86,1.083-4.303,4.279-3.22,7.141c0.839,2.215,2.945,3.579,5.182,3.579
		c0.651,0,1.313-0.116,1.959-0.361l73.41-27.788c7.461,0.454,15.408,0.817,23.792,1.047l-48.84,33.412
		c-2.524,1.727-3.17,5.174-1.444,7.698c1.072,1.568,2.809,2.412,4.576,2.412c1.077,0,2.166-0.314,3.122-0.969l61.806-42.282
		c0.149,0,0.295,0.002,0.444,0.002c12.141,0,25.008-0.318,38.426-1.045c-0.167,1.103-0.284,2.222-0.292,3.367
		c-0.393,7.789-1.244,37.426,7.215,53.877h-31.922c-3.058,0-5.538,2.48-5.538,5.538V250.4c0,1.922,0.982,3.616,2.47,4.608
		c-20.505,8.924-38.711,23.218-52.17,41.213c-16.779,22.434-25.647,49.141-25.647,77.233c0,71.174,57.904,129.076,129.076,129.076
		c71.174,0,129.079-57.904,129.079-129.076c0-28.113-8.88-54.835-25.68-77.28c-13.453-17.972-31.639-32.257-52.125-41.174
		c1.483-0.993,2.459-2.683,2.459-4.602v-32.881c0-3.058-2.48-5.538-5.538-5.538h-31.928c8.462-16.45,7.614-46.087,7.22-53.877
		c-0.017-2.571-0.464-5.039-1.248-7.353c29.302-3.557,57.755-8.977,85.154-16.203l-39.974,44.584
		c-2.042,2.277-1.851,5.778,0.427,7.822c1.057,0.948,2.379,1.414,3.695,1.414c1.519,0,3.033-0.622,4.127-1.841l51.649-57.605
		c9.008-2.72,17.887-5.65,26.637-8.774l-28.642,54.341c-1.426,2.705-0.389,6.055,2.316,7.482c0.825,0.434,1.708,0.64,2.578,0.64
		c1.989,0,3.913-1.076,4.903-2.958l34.439-65.336c10.353-4.058,20.498-8.429,30.458-13.071l-22.288,59.808
		c-1.068,2.866,0.389,6.055,3.257,7.124c0.638,0.238,1.291,0.351,1.932,0.35c2.246,0,4.361-1.377,5.191-3.606l26.325-70.638
		c11.742-5.919,23.181-12.261,34.317-19.003l-14.373,55.41c-0.768,2.961,1.009,5.984,3.969,6.752
		c0.466,0.121,0.934,0.178,1.394,0.178c2.463,0,4.71-1.654,5.356-4.149L448.4,66.674c10.943-7.12,21.572-14.642,31.864-22.572
		L467.23,97.974c-0.719,2.974,1.108,5.967,4.081,6.686c0.438,0.106,0.876,0.156,1.307,0.156c2.497,0,4.764-1.702,5.378-4.238
		l16.4-67.793c5.354-4.452,10.628-8.997,15.785-13.676c2.266-2.055,2.436-5.558,0.382-7.823
		C508.507,9.02,505.004,8.85,502.739,10.906z M173.572,158.536c0.005-0.094,0.007-0.188,0.007-0.283c0-1.49,0.278-2.912,0.761-4.236
		c2.951-0.209,5.922-0.434,8.921-0.687c4.506-0.379,8.987-0.817,13.456-1.281c1.061,1.828,1.679,3.943,1.679,6.204
		c0,0.095,0.002,0.19,0.007,0.284c1.103,21.435-2.033,51.704-10.759,53.441h-3.314C176.337,210.356,172.313,183.21,173.572,158.536z
		 M185.986,491.453c-45.452,0-84.979-25.836-104.683-63.59H290.67C270.967,465.617,231.44,491.453,185.986,491.453z
		 M303.988,373.454c0,15.291-2.926,29.911-8.242,43.333H76.229c-5.317-13.421-8.242-28.042-8.242-43.333
		c0-13.161,2.143-25.889,6.138-37.815h223.728C301.847,347.564,303.988,360.291,303.988,373.454z M293.495,324.561H78.483
		c13.151-29.082,37.855-52.134,69.528-62.865c3.05,2.583,7.205,5.265,13.876,5.265c8.178,0,12.577-4.026,15.789-6.966
		c2.766-2.532,4.436-4.059,8.305-4.059c3.872,0,5.543,1.529,8.31,4.06c3.212,2.939,7.614,6.965,15.789,6.965
		c6.674,0,10.832-2.683,13.882-5.266C255.643,272.426,280.348,295.475,293.495,324.561z M228.642,223.056v22.502
		c-4.793,1.28-7.852,4.075-10.247,6.267c-2.768,2.533-4.438,4.06-8.313,4.06s-5.545-1.529-8.313-4.06
		c-3.211-2.939-7.612-6.965-15.787-6.965c-8.174,0-12.572,4.026-15.783,6.964c-2.767,2.533-4.437,4.06-8.311,4.06
		c-3.871,0-5.54-1.527-8.305-4.059c-2.396-2.193-5.456-4.99-10.25-6.268v-22.502h85.309V223.056z"/>
</g>
<g>
</g>
<g>
</g>
<g>
</g>
<g>
</g>
<g>
</g>
<g>
</g>
<g>
</g>
<g>
</g>
<g>
</g>
<g>
</g>
<g>
</g>
<g>
</g>
<g>
</g>
<g>
</g>
<g>
</g>
</svg>
